<svg width="24" height="24" viewBox="0 0 24 24" fill="none" xmlns="http://www.w3.org/2000/svg">
    <path
        d="M4.6531 17.0464L5.34731 16.7626H5.34731L4.6531 17.0464ZM4.30609 11.4454L3.58237 11.2487L3.58237 11.2487L4.30609 11.4454ZM19.6939 11.4454L20.4176 11.2486V11.2486L19.6939 11.4454ZM19.3469 17.0464L18.6527 16.7626V16.7626L19.3469 17.0464ZM14.0365 20.8428L13.9211 20.1017H13.9211L14.0365 20.8428ZM9.96352 20.8428L10.0788 20.1017H10.0788L9.96352 20.8428ZM8.08242 7.78558L7.93367 7.05048L8.08242 7.78558ZM15.9176 7.78558L15.7688 8.52068L15.9176 7.78558ZM9.21479 20.7262L9.09946 21.4673H9.09947L9.21479 20.7262ZM4.74599 17.2736L4.05177 17.5574H4.05177L4.74599 17.2736ZM14.7852 20.7262L14.9005 21.4673H14.9005L14.7852 20.7262ZM19.254 17.2736L19.9482 17.5574V17.5574L19.254 17.2736ZM19.6174 11.164L18.8937 11.3608L18.8937 11.3608L19.6174 11.164ZM4.38262 11.164L5.10635 11.3608L5.10635 11.3608L4.38262 11.164ZM14.6699 19.9852L13.9211 20.1017L14.1518 21.5838L14.9005 21.4673L14.6699 19.9852ZM10.0788 20.1017L9.33011 19.9852L9.09947 21.4673L9.84819 21.5838L10.0788 20.1017ZM18.8937 11.3608L18.9702 11.6422L20.4176 11.2486L20.3411 10.9672L18.8937 11.3608ZM18.6527 16.7626L18.5598 16.9897L19.9482 17.5574L20.0411 17.3303L18.6527 16.7626ZM5.4402 16.9897L5.34731 16.7626L3.95889 17.3303L4.05177 17.5574L5.4402 16.9897ZM5.02981 11.6422L5.10635 11.3608L3.6589 10.9672L3.58237 11.2487L5.02981 11.6422ZM5.34731 16.7626C4.67945 15.1292 4.56875 13.3379 5.02981 11.6422L3.58237 11.2487C3.03448 13.2636 3.16667 15.3927 3.95889 17.3303L5.34731 16.7626ZM18.9702 11.6422C19.4313 13.3379 19.3205 15.1292 18.6527 16.7626L20.0411 17.3303C20.8333 15.3927 20.9655 13.2636 20.4176 11.2486L18.9702 11.6422ZM13.9211 20.1017C12.6488 20.2997 11.3512 20.2997 10.0788 20.1017L9.84819 21.5838C11.2734 21.8056 12.7266 21.8056 14.1518 21.5838L13.9211 20.1017ZM8.23117 8.52068C10.7161 8.01785 13.2839 8.01785 15.7688 8.52068L16.0663 7.05048C13.3851 6.50791 10.6149 6.50791 7.93367 7.05048L8.23117 8.52068ZM9.33011 19.9852C7.55413 19.7088 6.08232 18.5602 5.4402 16.9897L4.05177 17.5574C4.9021 19.6371 6.82848 21.1139 9.09946 21.4673L9.33011 19.9852ZM14.9005 21.4673C17.1715 21.1139 19.0979 19.6371 19.9482 17.5574L18.5598 16.9897C17.9177 18.5602 16.4458 19.7088 14.6699 19.9852L14.9005 21.4673ZM15.7688 8.52068C17.3088 8.8323 18.5082 9.94319 18.8937 11.3608L20.3411 10.9672C19.7992 8.97418 18.1334 7.46876 16.0663 7.05048L15.7688 8.52068ZM7.93367 7.05048C5.86662 7.46876 4.20082 8.97418 3.6589 10.9672L5.10635 11.3608C5.4918 9.94319 6.69121 8.8323 8.23117 8.52068L7.93367 7.05048Z"
        fill="white" />
    <path
        d="M15.1777 8.02577L14.491 7.72404L14.491 7.72404L15.1777 8.02577ZM14.278 8.2088C14.1114 8.58802 14.2837 9.03052 14.6629 9.19716C15.0421 9.3638 15.4846 9.19148 15.6513 8.81226L14.278 8.2088ZM8.82262 8.02577L9.50925 7.72404L9.50925 7.72404L8.82262 8.02577ZM8.34901 8.81226C8.51565 9.19148 8.95815 9.3638 9.33737 9.19716C9.71658 9.03052 9.88891 8.58802 9.72227 8.2088L8.34901 8.81226ZM11.2431 3.0742L11.3692 3.81351L11.3692 3.81351L11.2431 3.0742ZM11.3605 3.05415L11.2343 2.31484L11.2343 2.31484L11.3605 3.05415ZM12.6397 3.05415L12.5136 3.79346L12.5136 3.79346L12.6397 3.05415ZM12.7572 3.0742L12.8834 2.33489L12.8834 2.33489L12.7572 3.0742ZM15.4255 5.54836L16.158 5.38741L15.4255 5.54836ZM8.57479 5.54836L9.30732 5.70931V5.70931L8.57479 5.54836ZM14.491 7.72404L14.278 8.2088L15.6513 8.81226L15.8643 8.3275L14.491 7.72404ZM8.13599 8.3275L8.34901 8.81226L9.72227 8.2088L9.50925 7.72404L8.13599 8.3275ZM11.3692 3.81351L11.4867 3.79346L11.2343 2.31484L11.1169 2.33489L11.3692 3.81351ZM12.5136 3.79346L12.631 3.81351L12.8834 2.33489L12.7659 2.31484L12.5136 3.79346ZM14.693 5.70931C14.8412 6.38397 14.7714 7.08613 14.491 7.72404L15.8643 8.3275C16.2718 7.40023 16.3748 6.37415 16.158 5.38741L14.693 5.70931ZM7.84227 5.38741C7.62546 6.37415 7.72851 7.40024 8.13599 8.3275L9.50925 7.72404C9.22892 7.08613 9.15909 6.38397 9.30732 5.70931L7.84227 5.38741ZM11.4867 3.79346C11.8263 3.73551 12.174 3.73551 12.5136 3.79346L12.7659 2.31484C12.2594 2.22839 11.7409 2.22839 11.2343 2.31484L11.4867 3.79346ZM16.158 5.38741C15.8104 3.80521 14.5014 2.61105 12.8834 2.33489L12.631 3.81351C13.681 3.99271 14.4836 4.75649 14.693 5.70931L16.158 5.38741ZM9.30732 5.70931C9.51668 4.75649 10.3193 3.99271 11.3692 3.81351L11.1169 2.33489C9.49883 2.61105 8.18991 3.80521 7.84227 5.38741L9.30732 5.70931Z"
        fill="#5E57FF" />
</svg>
