<svg width="50" height="50" viewBox="0 0 50 50" fill="none" xmlns="http://www.w3.org/2000/svg">
<path fill-rule="evenodd" clip-rule="evenodd" d="M18.812 6.96604C22.8821 6.01132 27.1179 6.01132 31.188 6.96604C37.0658 8.34478 41.6552 12.9342 43.034 18.812C43.9887 22.8821 43.9887 27.1179 43.034 31.188C41.6552 37.0658 37.0658 41.6552 31.188 43.034C27.1179 43.9887 22.8821 43.9887 18.812 43.034C12.9342 41.6552 8.34478 37.0658 6.96604 31.188C6.01132 27.1179 6.01132 22.8821 6.96604 18.812C8.34478 12.9342 12.9342 8.34478 18.812 6.96604ZM31.3592 21.8277C31.8101 21.3446 31.784 20.5874 31.3009 20.1365C30.8177 19.6855 30.0605 19.7117 29.6096 20.1948L23.4745 26.7681L20.3616 23.6552C19.8943 23.1879 19.1367 23.1879 18.6694 23.6552C18.2021 24.1225 18.2021 24.8802 18.6694 25.3475L22.6581 29.3362C22.8875 29.5656 23.2003 29.6921 23.5248 29.6865C23.8493 29.6809 24.1576 29.5438 24.379 29.3065L31.3592 21.8277Z" fill="#29F086"/>
</svg>
