<svg width="50" height="50" viewBox="0 0 50 50" fill="none" xmlns="http://www.w3.org/2000/svg">
<path fill-rule="evenodd" clip-rule="evenodd" d="M18.812 6.96604C22.8821 6.01132 27.1179 6.01132 31.188 6.96604C37.0658 8.34478 41.6552 12.9342 43.034 18.812C43.9887 22.8821 43.9887 27.1179 43.034 31.188C41.6552 37.0658 37.0658 41.6552 31.188 43.034C27.1179 43.9887 22.8821 43.9887 18.812 43.034C12.9342 41.6552 8.34478 37.0658 6.96604 31.188C6.01132 27.1179 6.01132 22.8821 6.96604 18.812C8.34478 12.9342 12.9342 8.34478 18.812 6.96604ZM22.3205 20.6283C21.8532 20.161 21.0956 20.161 20.6283 20.6283C20.161 21.0956 20.161 21.8532 20.6283 22.3205L23.3077 25L20.6283 27.6794C20.161 28.1467 20.161 28.9043 20.6283 29.3716C21.0956 29.8389 21.8532 29.8389 22.3205 29.3716L25 26.6922L27.6794 29.3716C28.1467 29.8389 28.9043 29.8389 29.3716 29.3716C29.8389 28.9043 29.8389 28.1467 29.3716 27.6794L26.6922 25L29.3716 22.3205C29.8389 21.8532 29.8389 21.0956 29.3716 20.6283C28.9043 20.161 28.1467 20.161 27.6794 20.6283L25 23.3077L22.3205 20.6283Z" fill="#FF4343"/>
</svg>
