<svg width="36" height="36" viewBox="0 0 36 36" fill="none" xmlns="http://www.w3.org/2000/svg">
    <circle cx="18" cy="18" r="18" fill="#2B3459" />
    <path
        d="M19.8793 11.8786L20.4097 12.4089L20.4097 12.4089L19.8793 11.8786ZM15.3097 16.4482L15.84 16.9785L15.84 16.9785L15.3097 16.4482ZM24.1214 16.1207L23.5911 15.5903L23.5911 15.5903L24.1214 16.1207ZM19.5518 20.6903L19.0215 20.16L19.0215 20.16L19.5518 20.6903ZM12.3504 24.7676L12.1685 24.04L12.1685 24.04L12.3504 24.7676ZM11.4672 24.9884L11.6491 25.716L11.6491 25.716L11.4672 24.9884ZM11.0116 24.5328L11.7392 24.7147L11.7392 24.7147L11.0116 24.5328ZM11.2324 23.6496L11.96 23.8315L11.96 23.8315L11.2324 23.6496ZM19.349 11.3482L14.7794 15.9179L15.84 16.9785L20.4097 12.4089L19.349 11.3482ZM23.5911 15.5903L19.0215 20.16L20.0821 21.2206L24.6518 16.651L23.5911 15.5903ZM12.1685 24.04L11.2853 24.2608L11.6491 25.716L12.5323 25.4952L12.1685 24.04ZM11.7392 24.7147L11.96 23.8315L10.5048 23.4677L10.284 24.3509L11.7392 24.7147ZM11.2853 24.2608C11.5594 24.1923 11.8077 24.4406 11.7392 24.7147L10.284 24.3509C10.0778 25.1753 10.8246 25.9222 11.6491 25.716L11.2853 24.2608ZM19.0215 20.16C17.131 22.0504 14.7623 23.3916 12.1685 24.04L12.5323 25.4952C15.3898 24.7809 17.9994 23.3033 20.0821 21.2206L19.0215 20.16ZM14.7794 15.9179C12.6967 18.0006 11.2191 20.6102 10.5048 23.4677L11.96 23.8315C12.6084 21.2377 13.9496 18.869 15.84 16.9785L14.7794 15.9179ZM22.0004 10.25C21.0059 10.25 20.0522 10.645 19.349 11.3482L20.4097 12.4089C20.8315 11.987 21.4037 11.75 22.0004 11.75V10.25ZM24.25 13.9996C24.25 14.5963 24.013 15.1685 23.5911 15.5903L24.6518 16.651C25.355 15.9478 25.75 14.9941 25.75 13.9996H24.25ZM25.75 13.9996C25.75 11.9288 24.0712 10.25 22.0004 10.25V11.75C23.2428 11.75 24.25 12.7572 24.25 13.9996H25.75ZM23.0128 16.2806C22.3367 16.506 21.3847 16.1872 20.5988 15.4012C19.8128 14.6153 19.494 13.6633 19.7194 12.9872L18.2964 12.5128C17.8147 13.9578 18.5565 15.4803 19.5381 16.4619C20.5197 17.4435 22.0422 18.1853 23.4872 17.7036L23.0128 16.2806Z"
        fill="white" />
    <path
        d="M19.8793 11.8786L19.349 11.3482L19.349 11.3482L19.8793 11.8786ZM24.1214 16.1207L23.5911 15.5903L23.5911 15.5903L24.1214 16.1207ZM23.25 16.9921L23.4872 17.7036L23.6551 17.6476L23.7803 17.5224L23.25 16.9921ZM19.0079 12.75L18.4776 12.2197L18.3524 12.3449L18.2964 12.5128L19.0079 12.75ZM22.0004 10.25C21.0059 10.25 20.0522 10.645 19.349 11.3482L20.4097 12.4089C20.8316 11.987 21.4037 11.75 22.0004 11.75V10.25ZM24.25 13.9996C24.25 14.5963 24.013 15.1685 23.5911 15.5903L24.6518 16.651C25.355 15.9478 25.75 14.9941 25.75 13.9996H24.25ZM25.75 13.9996C25.75 11.9288 24.0712 10.25 22.0004 10.25V11.75C23.2428 11.75 24.25 12.7572 24.25 13.9996H25.75ZM23.0128 16.2806C22.3367 16.506 21.3847 16.1872 20.5988 15.4012C19.8128 14.6153 19.494 13.6633 19.7194 12.9872L18.2964 12.5128C17.8147 13.9578 18.5565 15.4803 19.5381 16.4619C20.5197 17.4435 22.0422 18.1853 23.4872 17.7036L23.0128 16.2806ZM19.349 11.3482L18.4776 12.2197L19.5382 13.2803L20.4097 12.4089L19.349 11.3482ZM23.5911 15.5903L22.7197 16.4618L23.7803 17.5224L24.6518 16.651L23.5911 15.5903Z"
        fill="#A4A0FF" />
</svg>
