<svg width="24" height="24" viewBox="0 0 24 24" fill="none" xmlns="http://www.w3.org/2000/svg">
    <path
        d="M3.35288 15.0496L2.6227 15.2209L3.35288 15.0496ZM3.35288 8.95043L4.08306 9.12171L3.35288 8.95043ZM15.0496 20.6471L14.8783 19.9169L15.0496 20.6471ZM8.95044 20.6471L9.12171 19.9169H9.12171L8.95044 20.6471ZM20.6471 15.0496L21.3773 15.2208L20.6471 15.0496ZM8.95043 3.35288L9.12171 4.08306L8.95043 3.35288ZM12 3.75C12.4142 3.75 12.75 3.41421 12.75 3C12.75 2.58579 12.4142 2.25 12 2.25V3.75ZM21.75 12C21.75 11.5858 21.4142 11.25 21 11.25C20.5858 11.25 20.25 11.5858 20.25 12L21.75 12ZM4.08306 14.8783C3.63898 12.9851 3.63898 11.0149 4.08306 9.12171L2.6227 8.77915C2.12577 10.8976 2.12577 13.1024 2.6227 15.2209L4.08306 14.8783ZM14.8783 19.9169C12.9851 20.361 11.0149 20.361 9.12171 19.9169L8.77916 21.3773C10.8976 21.8742 13.1024 21.8742 15.2208 21.3773L14.8783 19.9169ZM9.12171 19.9169C6.62161 19.3305 4.6695 17.3784 4.08306 14.8783L2.6227 15.2209C3.33924 18.2756 5.72441 20.6608 8.77916 21.3773L9.12171 19.9169ZM15.2208 21.3773C18.2756 20.6608 20.6608 18.2756 21.3773 15.2208L19.9169 14.8783C19.3305 17.3784 17.3784 19.3305 14.8783 19.9169L15.2208 21.3773ZM8.77916 2.6227C5.72441 3.33924 3.33924 5.72441 2.6227 8.77915L4.08306 9.12171C4.6695 6.6216 6.62161 4.6695 9.12171 4.08306L8.77916 2.6227ZM9.12171 4.08306C10.0683 3.86102 11.0341 3.75 12 3.75V2.25C10.9192 2.25 9.83839 2.37423 8.77916 2.6227L9.12171 4.08306ZM20.25 12C20.25 12.9658 20.139 13.9317 19.9169 14.8783L21.3773 15.2208C21.6258 14.1616 21.75 13.0808 21.75 12L20.25 12Z"
        fill="white" />
    <path
        d="M17 2.25C16.5858 2.25 16.25 2.58579 16.25 3C16.25 3.41421 16.5858 3.75 17 3.75V2.25ZM21 3H21.75C21.75 2.58579 21.4142 2.25 21 2.25V3ZM20.25 7.66667C20.25 8.08088 20.5858 8.41667 21 8.41667C21.4142 8.41667 21.75 8.08088 21.75 7.66667H20.25ZM14.4306 9.51191C14.161 9.8264 14.1974 10.2999 14.5119 10.5694C14.8264 10.839 15.2999 10.8026 15.5694 10.4881L14.4306 9.51191ZM17 3.75H21V2.25H17V3.75ZM20.25 3V7.66667H21.75V3H20.25ZM20.4306 2.51191L14.4306 9.51191L15.5694 10.4881L21.5694 3.48809L20.4306 2.51191Z"
        fill="#5E57FF" />
</svg>
