<svg width="24" height="24" viewBox="0 0 24 24" fill="none" xmlns="http://www.w3.org/2000/svg">
    <path
        d="M3.98389 11.6106L4.58561 11.1629L3.98389 11.6106ZM9.11798 18.5107L9.71969 18.063L9.11798 18.5107ZM14.882 18.5107L14.2803 18.063L14.882 18.5107ZM20.0161 11.6106L19.4144 11.1629L20.0161 11.6106ZM20.0161 5.57906L19.4144 6.02677V6.02677L20.0161 5.57906ZM12 6.54855L11.3555 6.93217C11.4908 7.15935 11.7356 7.29855 12 7.29855C12.2644 7.29855 12.5092 7.15935 12.6445 6.93217L12 6.54855ZM3.9839 5.57906L4.58561 6.02677L3.9839 5.57906ZM3.38218 12.0583L8.51626 18.9584L9.71969 18.063L4.58561 11.1629L3.38218 12.0583ZM8.51626 18.9584C10.2937 21.3472 13.7063 21.3472 15.4837 18.9584L14.2803 18.063C13.1027 19.6457 10.8973 19.6457 9.71969 18.063L8.51626 18.9584ZM15.4837 18.9584L20.6178 12.0583L19.4144 11.1629L14.2803 18.063L15.4837 18.9584ZM20.6178 12.0583C22.1274 10.0294 22.1274 7.1602 20.6178 5.13135L19.4144 6.02677C20.5285 7.52416 20.5285 9.66548 19.4144 11.1629L20.6178 12.0583ZM20.6178 5.13135C19.4535 3.56659 17.5593 3.06474 15.8058 3.30916C14.0564 3.553 12.3166 4.55044 11.3555 6.16494L12.6445 6.93217C13.3406 5.76276 14.6485 4.98497 16.0129 4.7948C17.373 4.60521 18.6583 5.01057 19.4144 6.02677L20.6178 5.13135ZM12.6445 6.16494C11.6834 4.55044 9.94357 3.553 8.19422 3.30916C6.44069 3.06474 4.54646 3.56659 3.38219 5.13135L4.58561 6.02677C5.34172 5.01057 6.62698 4.60521 7.98714 4.7948C9.35146 4.98497 10.6594 5.76276 11.3555 6.93217L12.6445 6.16494ZM3.38219 5.13135C1.87261 7.1602 1.8726 10.0294 3.38218 12.0583L4.58561 11.1629C3.47146 9.66548 3.47146 7.52416 4.58561 6.02677L3.38219 5.13135Z"
        fill="#5E57FF" />
    <path
        d="M3.98389 11.6106L3.38218 12.0583L3.98389 11.6106ZM9.11798 18.5107L9.71969 18.063L9.11798 18.5107ZM14.882 18.5107L14.2803 18.063L14.882 18.5107ZM20.6178 12.0583C20.8651 11.726 20.7961 11.2561 20.4638 11.0089C20.1315 10.7616 19.6617 10.8306 19.4144 11.1629L20.6178 12.0583ZM11.3555 6.93217C11.5674 7.2881 12.0277 7.40489 12.3836 7.19302C12.7395 6.98116 12.8563 6.52087 12.6445 6.16494L11.3555 6.93217ZM3.9839 5.57906L4.58561 6.02677L4.58561 6.02677L3.9839 5.57906ZM3.38218 12.0583L8.51626 18.9584L9.71969 18.063L4.58561 11.1629L3.38218 12.0583ZM8.51626 18.9584C10.2937 21.3472 13.7063 21.3472 15.4837 18.9584L14.2803 18.063C13.1027 19.6457 10.8973 19.6457 9.71969 18.063L8.51626 18.9584ZM15.4837 18.9584L20.6178 12.0583L19.4144 11.1629L14.2803 18.063L15.4837 18.9584ZM12.6445 6.16494C11.6834 4.55044 9.94357 3.553 8.19422 3.30916C6.44069 3.06474 4.54646 3.56659 3.38219 5.13135L4.58561 6.02677C5.34172 5.01057 6.62698 4.60521 7.98714 4.7948C9.35146 4.98497 10.6594 5.76276 11.3555 6.93217L12.6445 6.16494ZM3.38219 5.13135C1.87261 7.1602 1.8726 10.0294 3.38218 12.0583L4.58561 11.1629C3.47146 9.66548 3.47146 7.52416 4.58561 6.02677L3.38219 5.13135Z"
        fill="white" />
</svg>
