<svg width="96" height="96" viewBox="0 0 96 96" fill="none" xmlns="http://www.w3.org/2000/svg">
<g clip-path="url(#clip0_34_1388)">
<path fill-rule="evenodd" clip-rule="evenodd" d="M25.5012 58.5024H70.4984C72.5608 58.5024 74.2482 60.1898 74.2482 62.2522V77.2513C74.2482 79.3136 72.561 81.001 70.4984 81.001H25.5012C23.4389 81.001 21.7515 79.3136 21.7515 77.2513V62.2522C21.7515 60.1896 23.4389 58.5024 25.5012 58.5024Z" fill="#5E57FF"/>
<path d="M81.7477 43.5032H77.9979V30.0037C78.3371 13.9498 64.0544 -0.334513 47.9996 0.00596541C31.9465 -0.333951 17.661 13.9498 18.002 30.0041C18.0019 30.0039 18.0019 43.5034 18.0019 43.5034H14.2521C11.1507 43.5034 8.62744 46.0266 8.62744 49.1281V90.3755C8.62744 93.4769 11.1507 96.0002 14.2521 96.0002H81.7479C84.8493 96.0002 87.3725 93.4769 87.3725 90.3755V49.1281C87.3723 46.0265 84.8491 43.5032 81.7477 43.5032ZM21.7514 30.0037C23.0755 -4.77723 72.935 -4.75549 74.2482 30.0041C74.2482 30.0037 74.2482 43.5032 74.2482 43.5032H68.6237V30.0037C68.8586 18.9856 59.0183 9.14433 47.9996 9.38019C36.982 9.14471 27.14 18.9854 27.3763 30.0039C27.3761 30.0037 27.3761 43.5032 27.3761 43.5032H21.7514V30.0037ZM64.8739 43.5032H31.1259V30.0037C31.1259 20.6994 38.6955 13.1298 47.9998 13.1298C57.3043 13.1298 64.8739 20.6994 64.8739 30.0037V43.5032ZM83.6226 90.3753C83.6226 91.4091 82.7815 92.2502 81.7477 92.2502H14.2519C13.2181 92.2502 12.377 91.4091 12.377 90.3753V49.1279C12.377 48.0941 13.2181 47.253 14.2519 47.253H81.7477C82.7815 47.253 83.6226 48.0941 83.6226 49.1279V90.3753Z" fill="white"/>
<path d="M36.1712 67.1266L34.8756 67.5475V66.1854C34.8756 65.1499 34.0361 64.3105 33.0007 64.3105C31.9654 64.3105 31.1259 65.1499 31.1259 66.1854V67.5475L29.8303 67.1266C28.846 66.8066 27.7878 67.3456 27.4678 68.3303C27.1477 69.315 27.6868 70.3728 28.6716 70.6928L29.9672 71.1137L29.1666 72.2158C28.5578 73.0535 28.7436 74.226 29.5813 74.8346C30.4104 75.4393 31.588 75.2629 32.2004 74.4199L33.0009 73.3179L33.8017 74.4199C34.414 75.2632 35.5915 75.4393 36.4205 74.8346C37.2582 74.2259 37.444 73.0535 36.8353 72.2158L36.0345 71.1137L37.3299 70.6928C39.6641 69.8446 38.5572 66.4408 36.1712 67.1266Z" fill="white"/>
<path d="M51.1702 67.1266L49.8747 67.5475V66.1854C49.8747 65.1499 49.0351 64.3105 47.9998 64.3105C46.9645 64.3105 46.1249 65.1499 46.1249 66.1854V67.5475L44.8293 67.1266C43.845 66.8066 42.7867 67.3456 42.4668 68.3303C42.1468 69.315 42.6858 70.3728 43.6707 70.6928L44.9662 71.1137L44.1656 72.2158C43.5569 73.0535 43.7427 74.226 44.5804 74.8346C45.4094 75.4393 46.587 75.2629 47.1994 74.4199L48 73.3179L48.8007 74.4199C49.4131 75.2632 50.5905 75.4393 51.4196 74.8346C52.2573 74.2259 52.4431 73.0535 51.8343 72.2158L51.0335 71.1137L52.3289 70.6928C54.6631 69.8446 53.5564 66.4406 51.1702 67.1266Z" fill="white"/>
<path d="M66.1692 67.1266L64.8737 67.5475V66.1854C64.8737 65.1499 64.0341 64.3105 62.9988 64.3105C61.9635 64.3105 61.1239 65.1499 61.1239 66.1854V67.5475L59.8284 67.1266C58.844 66.8066 57.7857 67.3456 57.4658 68.3303C57.1458 69.315 57.6848 70.3728 58.6697 70.6928L59.9652 71.1137L59.1647 72.2158C58.5559 73.0535 58.7417 74.2261 59.5794 74.8346C60.4085 75.4393 61.5861 75.2629 62.1984 74.4199L62.999 73.318L63.7996 74.4199C64.4119 75.2631 65.5893 75.4393 66.4186 74.8346C67.2563 74.2261 67.4421 73.0535 66.8333 72.2158L66.0327 71.1137L67.3283 70.6928C69.6621 69.8446 68.5552 66.4408 66.1692 67.1266Z" fill="white"/>
</g>
<defs>
<clipPath id="clip0_34_1388">
<rect width="96" height="96" fill="white"/>
</clipPath>
</defs>
</svg>
