<svg width="54" height="55" viewBox="0 0 54 55" fill="none" xmlns="http://www.w3.org/2000/svg">
<rect width="54" height="55" rx="12" fill="#BDCFFF" fill-opacity="0.22"/>
<g clip-path="url(#clip0_34_2971)">
<path d="M34.6463 38.2639C34.6463 37.9118 34.5553 37.57 34.3891 37.2686C35.5139 36.4779 35.5135 34.7151 34.3891 33.9248C35.1557 32.5804 34.1272 30.8408 32.5776 30.8608H28.7736V25.6981C28.7447 24.9203 27.6285 24.9209 27.6 25.6981V30.8608H26.4027V25.6981C26.3739 24.9203 25.2577 24.9209 25.2291 25.6981V29.404C23.1851 29.5789 21.3437 30.6598 20.1807 32.3752H19.3504C18.5727 32.4041 18.5733 33.5203 19.3504 33.5489H20.5005C20.705 33.5489 20.8947 33.4425 21.0013 33.268C21.934 31.7414 23.488 30.7635 25.229 30.5828V31.4475C25.229 31.7716 25.4918 32.0343 25.8158 32.0343H32.5776C33.4434 32.0336 33.8018 33.161 33.0923 33.6597C32.8997 33.7965 32.8079 34.0354 32.8593 34.266C32.9108 34.4965 33.0955 34.6738 33.328 34.7156C34.3037 34.9153 34.303 36.2782 33.328 36.4775C32.8232 36.561 32.671 37.2434 33.0922 37.5335C33.7408 37.9845 33.5057 39.0061 32.7353 39.1448C32.5028 39.1867 32.318 39.3639 32.2666 39.5945C32.2151 39.825 32.307 40.064 32.4995 40.2008C33.1918 40.6807 32.8686 41.8193 32.0395 41.8261H25.8158C23.9742 41.8261 22.2421 40.9145 21.1823 39.3877C21.0727 39.2298 20.8925 39.1355 20.7002 39.1355H19.3504C18.5727 39.1644 18.5733 40.2806 19.3504 40.3092H20.4018C21.692 41.9996 23.6933 42.9997 25.8158 42.9997H32.0395C33.5548 43.0214 34.5547 41.2599 33.7963 39.9357C34.3166 39.5565 34.6463 38.9438 34.6463 38.2639Z" fill="white"/>
<path fill-rule="evenodd" clip-rule="evenodd" d="M27.0014 26.5872C30.7557 26.5872 33.8177 23.5252 33.8177 19.771C33.469 10.7418 20.5324 10.7442 20.1851 19.771C20.1851 23.5253 23.2471 26.5872 27.0014 26.5872Z" fill="#5E57FF"/>
<path d="M26.2605 21.8396C26.1049 21.8396 25.9556 21.7778 25.8455 21.6677L24.3638 20.186C24.1346 19.9567 24.1346 19.5852 24.3638 19.356C24.593 19.1269 24.9645 19.1269 25.1937 19.356L26.2605 20.4229L28.8092 17.8742C29.0384 17.6451 29.4099 17.6451 29.6392 17.8742C29.8683 18.1034 29.8683 18.475 29.6392 18.7042L26.6755 21.6677C26.5654 21.7778 26.4162 21.8396 26.2605 21.8396Z" fill="white"/>
</g>
<defs>
<clipPath id="clip0_34_2971">
<rect width="30" height="30" fill="white" transform="translate(12 13)"/>
</clipPath>
</defs>
</svg>
