<svg width="96" height="96" viewBox="0 0 96 96" fill="none" xmlns="http://www.w3.org/2000/svg">
<path d="M55.607 78.6335L45.2739 81.6128L14.3872 50.726L17.3666 40.3928L55.607 78.6335Z" fill="#5E57FF"/>
<path d="M32.876 85.1886L22.541 88.1663L7.8335 73.4586L10.8112 63.1238L32.876 85.1886Z" fill="#5E57FF"/>
<path d="M89.9284 35.146C88.3068 35.146 86.7822 34.5145 85.6353 33.3677C83.2681 31.0002 83.2681 27.1484 85.6353 24.781C86.782 23.6344 88.3071 23.0029 89.9284 23.0029H89.9282C91.5501 23.0029 93.0749 23.6344 94.2216 24.781C96.5886 27.1486 96.5888 31.0004 94.2216 33.3679C93.0751 34.5143 91.5503 35.1458 89.9284 35.146Z" fill="#5E57FF"/>
<path d="M66.051 28.2246C64.5 28.2246 63.0418 27.6205 61.9453 26.524C59.6816 24.2601 59.6816 20.5763 61.9453 18.3124C63.042 17.2158 64.5002 16.6118 66.051 16.6118C67.602 16.6118 69.0602 17.2159 70.1567 18.3124C72.4206 20.5763 72.4204 24.2601 70.1567 26.524C69.06 27.6205 67.602 28.2244 66.051 28.2246Z" fill="#5E57FF"/>
<path d="M94.8761 54.0132C91.1921 50.329 86.2937 48.2999 81.0836 48.2999C75.8734 48.3001 70.9752 50.329 67.291 54.0132L58.453 62.8512L33.1486 37.5468L41.9866 28.7088C45.6708 25.0248 47.6997 20.1262 47.6997 14.9161C47.6997 9.70588 45.6708 4.80764 41.9866 1.12346C41.2544 0.391463 40.0672 0.391463 39.335 1.12346C38.6028 1.85565 38.6028 3.0429 39.3352 3.77508C42.311 6.75089 43.9499 10.7075 43.9499 14.9159C43.9499 19.1244 42.311 23.081 39.3352 26.0568L30.4972 34.8948L22.268 26.6656C21.7989 26.1965 21.1164 26.0101 20.474 26.1759C19.8315 26.3416 19.3245 26.8345 19.1405 27.472C0.98305 90.4502 21.1968 20.3264 0.0734891 93.6052C-0.115698 94.2611 0.0665516 94.968 0.549176 95.4506C1.03461 95.9359 1.7428 96.1143 2.39455 95.9263L68.5275 76.8595C69.897 76.4646 70.3426 74.7409 69.334 73.732L61.1046 65.5026L69.9426 56.6646C72.9184 53.6886 76.875 52.0497 81.0835 52.0497C85.2919 52.0497 89.2485 53.6886 92.2243 56.6646L92.5841 57.0244C93.3163 57.7564 94.5036 57.7564 95.2359 57.0244C95.9681 56.2922 95.9681 55.105 95.2359 54.3726L94.8761 54.0132ZM4.61698 91.3826C21.858 31.5689 8.62816 77.4698 21.863 31.5646C23.6581 33.3597 62.9217 72.6235 64.435 74.1368C24.3928 85.6809 4.72761 91.3509 4.61698 91.3826Z" fill="white"/>
<path d="M64.7518 10.2129C65.0908 10.4702 65.4889 10.5945 65.884 10.5945C66.4504 10.5945 67.0101 10.3387 67.3791 9.85273C68.7801 8.00642 70.3015 7.73305 72.4067 7.35486C74.8127 6.92248 77.8067 6.38455 80.517 3.05961C81.1714 2.25692 81.051 1.07586 80.2483 0.42167C79.4457 -0.23233 78.2646 -0.112517 77.6104 0.690358C75.7772 2.93942 73.9078 3.27523 71.7435 3.66411C69.3686 4.09067 66.6769 4.57442 64.3917 7.58605C63.7658 8.41086 63.927 9.58705 64.7518 10.2129Z" fill="white"/>
<path d="M81.0295 16.9378C81.3647 17.1855 81.7551 17.305 82.1421 17.305C82.7168 17.305 83.284 17.0415 83.6517 16.5437C85.6195 13.8801 87.205 13.6018 89.2124 13.2495C91.0725 12.9231 93.3876 12.517 95.5489 9.99303C96.2224 9.20666 96.1309 8.02278 95.3444 7.34928C94.5578 6.67578 93.3743 6.76728 92.7006 7.55403C91.4145 9.05591 90.219 9.26572 88.5644 9.55616C86.3055 9.95234 83.4943 10.4458 80.6355 14.3158C80.0203 15.1487 80.1966 16.3227 81.0295 16.9378Z" fill="white"/>
<path d="M43.5084 39.339C43.0352 40.2602 43.3982 41.3905 44.3194 41.8637C45.2383 42.3362 46.3701 41.9755 46.8439 41.0528C47.2131 40.3345 47.4799 40.264 48.8128 40.1903C50.3768 40.1036 52.9943 39.9591 54.4388 36.4765C54.8355 35.52 54.3818 34.423 53.4253 34.0262C52.4691 33.6298 51.3718 34.0834 50.9751 35.0398C50.4338 36.3448 49.9731 36.3703 48.606 36.4459C47.1259 36.5278 44.8892 36.6514 43.5084 39.339Z" fill="white"/>
<path d="M66.2079 42.2534C64.9186 44.1871 63.8806 44.251 62.1611 44.3568C60.0088 44.4892 57.0611 44.6705 54.2281 48.9072C53.6525 49.768 53.8839 50.9326 54.7445 51.508C55.607 52.0852 56.7712 51.8504 57.3455 50.9917C59.1457 48.2995 60.507 48.2157 62.3911 48.0998C64.4475 47.9733 67.0065 47.8158 69.3279 44.3335C69.9024 43.472 69.6695 42.3078 68.808 41.7335C67.9462 41.159 66.7822 41.3915 66.2079 42.2534Z" fill="white"/>
<path d="M77.9497 37.2935C78.9852 37.2935 79.8247 36.454 79.8247 35.4185C79.8247 34.3829 78.9852 33.5435 77.9497 33.5435C76.9142 33.5435 76.0747 34.3829 76.0747 35.4185C76.0747 36.454 76.9142 37.2935 77.9497 37.2935Z" fill="white"/>
<path d="M87.5758 40.0856C86.8541 40.8071 86.8545 42.0152 87.5758 42.7369C88.2973 43.4584 89.5055 43.4587 90.227 42.7369C90.9485 42.0152 90.9489 40.8073 90.227 40.0856C89.5054 39.3635 88.2975 39.3639 87.5758 40.0856C87.227 40.4342 87.9245 39.7367 87.5758 40.0856Z" fill="white"/>
<path d="M79.594 23.1149C78.8723 22.3934 77.6644 22.3934 76.9427 23.1149C76.2201 23.8377 76.2231 25.0425 76.9427 25.7663C77.6646 26.4878 78.8723 26.4878 79.594 25.7663C80.3156 25.0444 80.3156 23.8365 79.594 23.1149C79.9427 23.4636 79.2452 22.7661 79.594 23.1149Z" fill="white"/>
<path d="M54.5889 28.2241C55.6244 28.2241 56.4639 27.3847 56.4639 26.3491C56.4639 25.3136 55.6244 24.4741 54.5889 24.4741C53.5533 24.4741 52.7139 25.3136 52.7139 26.3491C52.7139 27.3847 53.5533 28.2241 54.5889 28.2241Z" fill="white"/>
<path d="M63.4467 37.0798C64.4656 37.0798 65.3217 36.2261 65.3217 35.2067C65.3217 34.1865 64.4678 33.3298 63.4467 33.3298C62.425 33.3298 61.5698 34.185 61.5698 35.2067C61.5698 36.2275 62.4271 37.0798 63.4467 37.0798Z" fill="white"/>
<path d="M55.7026 15.8154C56.7382 15.8154 57.5776 14.976 57.5776 13.9404C57.5776 12.9049 56.7382 12.0654 55.7026 12.0654C54.6671 12.0654 53.8276 12.9049 53.8276 13.9404C53.8276 14.976 54.6671 15.8154 55.7026 15.8154Z" fill="white"/>
<path d="M57.2402 4.8562C58.2758 4.8562 59.1152 4.01674 59.1152 2.9812C59.1152 1.94567 58.2758 1.1062 57.2402 1.1062C56.2047 1.1062 55.3652 1.94567 55.3652 2.9812C55.3652 4.01674 56.2047 4.8562 57.2402 4.8562Z" fill="white"/>
</svg>
