<svg width="96" height="96" viewBox="0 0 96 96" fill="none" xmlns="http://www.w3.org/2000/svg">
<path d="M15 69.3539V26.6462H77.9441V37.879H72.7539C67.1732 37.879 62.6329 42.4193 62.6329 48.0001C62.6329 53.5808 67.1732 58.1209 72.7539 58.1209H77.9441V69.3537H15V69.3539Z" fill="#5E57FF"/>
<path d="M94.125 37.879H92.9441V20.1769C92.9441 15.4731 89.1174 11.6462 84.4136 11.6462H8.5305C3.82669 11.6462 0 15.4731 0 20.1769V75.8232C0 80.527 3.82669 84.3539 8.5305 84.3539H84.4136C89.1174 84.3539 92.9441 80.527 92.9441 75.8232V58.1209H94.125C95.1604 58.1209 96 57.2815 96 56.2459V39.754C96 38.7186 95.1604 37.879 94.125 37.879ZM92.25 41.629V54.3709H72.7541C69.2413 54.3709 66.3831 51.5129 66.3831 48C66.3831 44.4872 69.2411 41.629 72.7541 41.629H92.25ZM89.1941 75.8232C89.1941 78.4592 87.0495 80.6039 84.4136 80.6039H8.5305C5.89462 80.6039 3.75 78.4592 3.75 75.8232V20.1769C3.75 17.5409 5.89462 15.3962 8.5305 15.3962H84.4136C87.0497 15.3962 89.1941 17.5409 89.1941 20.1769V37.8792H72.7539C67.1732 37.8792 62.6329 42.4195 62.6329 48.0002C62.6329 53.581 67.1732 58.1211 72.7539 58.1211H89.1941V75.8232Z" fill="white"/>
<path d="M77.2419 49.875H81.3909C82.4263 49.875 83.2659 49.0356 83.2659 48C83.2659 46.9644 82.4263 46.125 81.3909 46.125H77.2419C76.2066 46.125 75.3669 46.9644 75.3669 48C75.3669 49.0356 76.2066 49.875 77.2419 49.875Z" fill="white"/>
</svg>
