<svg width="36" height="36" viewBox="0 0 36 36" fill="none" xmlns="http://www.w3.org/2000/svg">
<path d="M0 18C0 8.05888 8.05888 0 18 0C27.9411 0 36 8.05888 36 18C36 27.9411 27.9411 36 18 36C8.05888 36 0 27.9411 0 18Z" fill="#5E57FF"/>
<path d="M17.7922 14.4214L26.022 18.1552L17.7922 4.5V14.4214Z" fill="white" fill-opacity="0.5"/>
<path d="M17.7923 14.4149V4.5L9.5625 18.1552L17.7923 14.4149Z" fill="white"/>
<path d="M17.7922 31.3132L26.027 19.7161L17.7923 24.5782L17.7922 31.3132Z" fill="white" fill-opacity="0.5"/>
<path d="M9.5625 19.7158L17.7923 31.313V24.578L9.5625 19.7158Z" fill="white"/>
<path d="M17.7922 14.4146V23.0198L26.0219 18.1552L17.7922 14.4146Z" fill="white" fill-opacity="0.25"/>
<path d="M17.7922 14.4146L9.5625 18.1551L17.7922 23.0197V14.4146Z" fill="white" fill-opacity="0.5"/>
</svg>
