<svg width="24" height="24" viewBox="0 0 24 24" fill="none" xmlns="http://www.w3.org/2000/svg">
<path d="M18.48 17.7869C18.0658 17.7869 17.73 18.1227 17.73 18.5369C17.73 18.9511 18.0658 19.2869 18.48 19.2869V17.7869ZM21 19.2869C21.4142 19.2869 21.75 18.9511 21.75 18.5369C21.75 18.1227 21.4142 17.7869 21 17.7869V19.2869ZM10.169 11.2941C9.75477 11.2941 9.41898 11.6299 9.41898 12.0441C9.41898 12.4584 9.75477 12.7941 10.169 12.7941V11.2941ZM21 12.7941C21.4142 12.7941 21.75 12.4584 21.75 12.0441C21.75 11.6299 21.4142 11.2941 21 11.2941V12.7941ZM12.801 6.30127C13.2152 6.30127 13.551 5.96548 13.551 5.55127C13.551 5.13706 13.2152 4.80127 12.801 4.80127V6.30127ZM3 4.80127C2.58579 4.80127 2.25 5.13706 2.25 5.55127C2.25 5.96548 2.58579 6.30127 3 6.30127L3 4.80127ZM21 6.30127C21.4142 6.30127 21.75 5.96548 21.75 5.55127C21.75 5.13706 21.4142 4.80127 21 4.80127V6.30127ZM18.48 4.80127C18.0658 4.80127 17.73 5.13706 17.73 5.55127C17.73 5.96548 18.0658 6.30127 18.48 6.30127V4.80127ZM3 17.7869C2.58579 17.7869 2.25 18.1227 2.25 18.5369C2.25 18.9511 2.58579 19.2869 3 19.2869V17.7869ZM12.801 19.2869C13.2152 19.2869 13.551 18.9511 13.551 18.5369C13.551 18.1227 13.2152 17.7869 12.801 17.7869V19.2869ZM18.48 19.2869H21V17.7869H18.48V19.2869ZM10.169 12.7941H21V11.2941H10.169V12.7941ZM12.801 4.80127L3 4.80127L3 6.30127L12.801 6.30127V4.80127ZM21 4.80127H18.48V6.30127H21V4.80127ZM3 19.2869H12.801V17.7869H3V19.2869Z" fill="#0F172A"/>
<path d="M17.1299 18.6C17.1299 19.5113 16.3912 20.25 15.4799 20.25V21.75C17.2196 21.75 18.6299 20.3397 18.6299 18.6H17.1299ZM15.4799 20.25C14.5687 20.25 13.8299 19.5113 13.8299 18.6H12.3299C12.3299 20.3397 13.7402 21.75 15.4799 21.75V20.25ZM13.8299 18.6C13.8299 17.6887 14.5687 16.95 15.4799 16.95V15.45C13.7402 15.45 12.3299 16.8603 12.3299 18.6H13.8299ZM15.4799 16.95C16.3912 16.95 17.1299 17.6887 17.1299 18.6H18.6299C18.6299 16.8603 17.2196 15.45 15.4799 15.45V16.95ZM8.72993 12C8.72993 12.9113 7.9912 13.65 7.07993 13.65V15.15C8.81963 15.15 10.2299 13.7397 10.2299 12H8.72993ZM7.07993 13.65C6.16866 13.65 5.42993 12.9113 5.42993 12H3.92993C3.92993 13.7397 5.34023 15.15 7.07993 15.15V13.65ZM5.42993 12C5.42993 11.0887 6.16866 10.35 7.07993 10.35V8.85C5.34023 8.85 3.92993 10.2603 3.92993 12H5.42993ZM7.07993 10.35C7.9912 10.35 8.72993 11.0887 8.72993 12H10.2299C10.2299 10.2603 8.81963 8.85 7.07993 8.85V10.35ZM17.1299 5.4C17.1299 6.31127 16.3912 7.05 15.4799 7.05V8.55C17.2196 8.55 18.6299 7.1397 18.6299 5.4H17.1299ZM15.4799 7.05C14.5687 7.05 13.8299 6.31127 13.8299 5.4H12.3299C12.3299 7.1397 13.7402 8.55 15.4799 8.55V7.05ZM13.8299 5.4C13.8299 4.48873 14.5687 3.75 15.4799 3.75V2.25C13.7402 2.25 12.3299 3.6603 12.3299 5.4H13.8299ZM15.4799 3.75C16.3912 3.75 17.1299 4.48873 17.1299 5.4H18.6299C18.6299 3.6603 17.2196 2.25 15.4799 2.25V3.75Z" fill="#5E57FF"/>
</svg>
