<svg width="24" height="24" viewBox="0 0 24 24" fill="none" xmlns="http://www.w3.org/2000/svg">
<path d="M17.5078 7.67865C17.0076 7.1326 16.2301 6.39559 15.8993 8.05974C15.7868 8.62557 15.524 9.06175 15.2987 9.41293C15.056 8.18425 14.3255 6.91248 13.6373 6.05499C13.3798 5.73418 12.466 4.45885 12.2905 2.32529C12.2643 2.00687 11.886 1.85734 11.6495 2.07212C9.38858 4.12449 8.14761 6.94721 8.10153 10.125C8.10153 10.125 7.16009 9.33146 6.64864 7.85518C6.51092 7.45763 5.97795 7.38179 5.74672 7.73331C5.70233 7.80081 5.66117 7.8684 5.62405 7.93403C3.87969 11.0184 3.04058 14.7639 3.81631 18.2486C5.11334 24.0844 13.6931 25.716 18.2352 22.048C22.6792 18.4595 21.2666 11.7803 17.5078 7.67865Z" fill="#ED694A"/>
<path d="M5.02358 18.6148C4.25684 15.0928 5.06844 11.3108 6.77183 8.17816C6.72875 8.07423 6.68731 7.96675 6.64859 7.855C6.51087 7.45745 5.97791 7.38161 5.74667 7.73312C5.70228 7.80062 5.66117 7.86822 5.62405 7.93384C3.87969 11.0182 3.04058 14.7638 3.81631 18.2485C4.40792 20.9103 6.51486 22.6969 9.06256 23.5054C7.07506 22.5427 5.51862 20.8923 5.02358 18.6148Z" fill="#D8553A"/>
<path d="M9.31483 10.0663C9.409 7.18225 10.4522 4.59616 12.3192 2.60951C12.3063 2.5001 12.2968 2.40227 12.2907 2.32802C12.2639 2.00688 11.8995 1.84582 11.664 2.05872C9.4803 4.03301 8.14933 6.82718 8.10156 10.1247L8.51027 10.4421C8.71155 10.5985 8.98427 10.5917 9.1765 10.4485C9.2912 10.3512 9.30766 10.2045 9.31483 10.0663Z" fill="#D8553A"/>
<path d="M16.1364 11.9445C15.767 11.5412 15.1926 10.9968 14.9483 12.226C14.8653 12.6439 14.6711 12.9661 14.5048 13.2255C14.3255 12.3179 13.786 11.3786 13.2776 10.7452C13.0874 10.5083 12.4125 9.56634 12.2828 7.99036C12.2635 7.75514 11.9841 7.64475 11.8094 7.80337C10.1395 9.31926 9.22282 11.4043 9.18884 13.7514C9.18884 13.7514 8.49345 13.1653 8.11573 12.0749C8.01401 11.7812 7.62031 11.7252 7.44954 11.9849C7.41678 12.0347 7.38636 12.0847 7.35893 12.1331C6.07048 14.4113 5.4507 17.1778 6.02365 19.7517C6.98168 24.0621 13.3188 25.2673 16.6737 22.558C19.9561 19.9075 18.9127 14.9741 16.1364 11.9445Z" fill="#F4A32C"/>
<path d="M7.21854 20.0899C6.71126 17.5738 7.23668 14.874 8.35067 12.6259C8.26578 12.4597 8.18534 12.2759 8.11568 12.0749C8.01397 11.7813 7.62026 11.7253 7.4495 11.9849C7.41673 12.0347 7.38631 12.0847 7.35889 12.1332C6.07048 14.4114 5.45075 17.1779 6.02361 19.7518C6.4692 21.7565 8.07847 23.0891 10.0099 23.669C8.63764 22.9808 7.55717 21.7717 7.21854 20.0899Z" fill="#E89528"/>
<path d="M14.8844 15.8392C14.6344 15.5662 14.2455 15.1977 14.0801 16.0298C14.0239 16.3127 13.8924 16.5308 13.7798 16.7064C13.6584 16.092 13.2933 15.4561 12.9491 15.0274C12.8204 14.867 12.3635 14.2294 12.2757 13.1625C12.2625 13.0033 12.0735 12.9285 11.9552 13.036C10.8247 14.0622 10.2043 15.4736 10.1812 17.0624C10.1812 17.0624 9.71048 16.6656 9.45482 15.9275C9.38596 15.7287 9.11948 15.6908 9.00388 15.8666C8.98166 15.9003 8.96113 15.9341 8.94252 15.9669C8.07037 17.5091 7.65079 19.3819 8.03863 21.1242C8.68715 24.0422 12.977 24.8579 15.2481 23.024C16.0258 22.3959 16.508 21.511 16.6057 20.5321C16.7534 19.0494 16.1827 17.256 14.8844 15.8392Z" fill="#F4D44E"/>
<path d="M13.7226 19.4534C13.5833 19.3013 13.3667 19.096 13.2745 19.5595C13.2432 19.7171 13.17 19.8386 13.1072 19.9365C13.0396 19.5942 12.8362 19.2399 12.6444 19.0011C12.5727 18.9117 12.3181 18.5564 12.2692 17.9621C12.2619 17.8734 12.1565 17.8318 12.0907 17.8915C11.4609 18.4633 11.1151 19.2496 11.1023 20.1348C11.1023 20.1348 10.8401 19.9137 10.6976 19.5025C10.6592 19.3917 10.5108 19.3706 10.4464 19.4686C10.434 19.4874 10.4226 19.5062 10.4123 19.5245C9.92639 20.3837 9.69262 21.427 9.90872 22.3978C10.4008 24.6117 14.4343 24.5446 14.6817 22.0678C14.7638 21.2418 14.4459 20.2427 13.7226 19.4534Z" fill="#EAE9E8"/>
<path d="M10.8452 22.8373C10.6291 21.969 10.8629 21.0356 11.3488 20.2671C11.3591 20.2507 11.3706 20.2339 11.3829 20.2171C11.4473 20.1295 11.5958 20.1484 11.6341 20.2474C11.7766 20.6153 12.0389 20.813 12.0389 20.813C12.0494 20.1624 12.2851 19.5718 12.718 19.0981C12.6212 18.964 12.325 18.6408 12.2692 17.9623C12.2619 17.8736 12.1565 17.832 12.0907 17.8918C11.4609 18.4635 11.1151 19.2499 11.1023 20.135C11.1023 20.135 10.8401 19.914 10.6976 19.5028C10.6593 19.392 10.5108 19.3709 10.4464 19.4689C10.434 19.4876 10.4226 19.5065 10.4123 19.5248C9.92639 20.3839 9.69262 21.4273 9.90872 22.3981C10.1087 23.2978 10.9302 23.8386 11.8385 23.9691C11.3485 23.7285 10.972 23.3475 10.8452 22.8373Z" fill="#F7E7A1"/>
<path d="M8.65298 3.18961C9.66665 2.36512 9.6644 0.822609 8.65298 0C7.63931 0.824437 7.64151 2.367 8.65298 3.18961Z" fill="#D8553A"/>
<path d="M20.8027 9.8068C21.8163 8.98231 21.8141 7.4398 20.8027 6.61719C20.3394 6.99397 19.7912 8.98419 20.8027 9.8068Z" fill="#D8553A"/>
<path d="M2.84925 10.4345C3.5798 9.8403 3.5782 8.72866 2.84925 8.13574C2.51536 8.40729 2.1203 9.84166 2.84925 10.4345Z" fill="#D8553A"/>
<path d="M15.5019 5.48849C16.2324 4.89426 16.2308 3.78262 15.5019 3.1897C14.7713 3.78388 14.773 4.89562 15.5019 5.48849Z" fill="#D8553A"/>
<path d="M10.1208 13.3747C10.2886 11.3941 11.0449 9.63305 12.3149 8.29051C12.302 8.19319 12.2912 8.0933 12.2828 7.9906C12.2634 7.75538 11.9841 7.64499 11.8093 7.80362C10.486 9.00483 9.63675 10.5637 9.32391 12.3269L9.32344 12.3268C9.30024 12.4575 9.27146 12.648 9.25327 12.7977C9.25331 12.7979 9.25336 12.798 9.25345 12.7981C9.21544 13.1105 9.19341 13.4285 9.18872 13.7517C9.22406 13.7586 10.0241 14.1698 10.1208 13.3747Z" fill="#E89528"/>
<path d="M9.20765 21.5382C8.86288 19.9105 9.15651 18.1747 9.83863 16.6707C9.70649 16.4854 9.56188 16.2365 9.45486 15.9275C9.38596 15.7287 9.11952 15.6908 9.00388 15.8665C8.98171 15.9002 8.96108 15.9341 8.94252 15.9669C8.07037 17.5091 7.65079 19.3818 8.03863 21.1242C8.34238 22.4907 9.44474 23.3962 10.7643 23.7844C9.99622 23.2744 9.41521 22.5197 9.20765 21.5382Z" fill="#E8C842"/>
<path d="M11.4258 16.3511C11.5401 15.5343 11.8741 14.6344 12.4 13.882C12.3428 13.6695 12.2977 13.4295 12.2757 13.1625C12.2626 13.0033 12.0735 12.9285 11.9552 13.036C11.2509 13.6754 10.7453 14.4647 10.4581 15.3529L10.4574 15.3527C10.4122 15.4923 10.3483 15.7234 10.3096 15.9059C10.3099 15.9058 10.3103 15.9058 10.3106 15.9057C10.2313 16.2781 10.1872 16.6645 10.1814 17.0623C10.8138 17.1413 11.337 16.9847 11.4258 16.3511Z" fill="#E8C842"/>
</svg>
