<svg width="24" height="24" viewBox="0 0 24 24" fill="none" xmlns="http://www.w3.org/2000/svg">
<path d="M14.8052 18.6483L15.538 18.8078L14.8052 18.6483ZM14.7327 18.9811L15.4655 19.1407L14.7327 18.9811ZM9.26707 18.9811L9.9999 18.8216L9.9999 18.8216L9.26707 18.9811ZM9.19459 18.6483L8.46176 18.8078L8.46176 18.8078L9.19459 18.6483ZM12.8849 20.8718L12.7104 20.1424L12.7104 20.1424L12.8849 20.8718ZM12.6889 20.9187L12.8634 21.6481H12.8634L12.6889 20.9187ZM11.3108 20.9187L11.4853 20.1893L11.4853 20.1893L11.3108 20.9187ZM11.1149 20.8718L10.9404 21.6013L10.9404 21.6013L11.1149 20.8718ZM10.1654 17.5578C10.4375 17.2454 10.4048 16.7717 10.0925 16.4996C9.78012 16.2276 9.30637 16.2602 9.03432 16.5726L10.1654 17.5578ZM14.9654 16.5726C14.6934 16.2602 14.2196 16.2276 13.9073 16.4996C13.5949 16.7717 13.5623 17.2454 13.8343 17.5578L14.9654 16.5726ZM14.0723 18.4887L13.9999 18.8216L15.4655 19.1407L15.538 18.8078L14.0723 18.4887ZM9.9999 18.8216L9.92742 18.4887L8.46176 18.8078L8.53424 19.1407L9.9999 18.8216ZM12.7104 20.1424L12.5145 20.1893L12.8634 21.6481L13.0593 21.6013L12.7104 20.1424ZM11.4853 20.1893L11.2894 20.1424L10.9404 21.6013L11.1364 21.6481L11.4853 20.1893ZM9.92742 18.4887C9.85528 18.1574 9.94408 17.8119 10.1654 17.5578L9.03432 16.5726C8.50095 17.185 8.28897 18.0143 8.46176 18.8078L9.92742 18.4887ZM15.538 18.8078C15.7108 18.0143 15.4988 17.185 14.9654 16.5726L13.8343 17.5578C14.0557 17.8119 14.1445 18.1574 14.0723 18.4887L15.538 18.8078ZM12.5145 20.1893C12.1761 20.2702 11.8236 20.2702 11.4853 20.1893L11.1364 21.6481C11.7041 21.7839 12.2957 21.7839 12.8634 21.6481L12.5145 20.1893ZM8.53424 19.1407C8.79866 20.355 9.73262 21.3124 10.9404 21.6013L11.2894 20.1424C10.6447 19.9882 10.1424 19.476 9.9999 18.8216L8.53424 19.1407ZM13.9999 18.8216C13.8573 19.476 13.355 19.9882 12.7104 20.1424L13.0593 21.6013C14.2671 21.3124 15.2011 20.355 15.4655 19.1407L13.9999 18.8216Z" fill="#5E57FF"/>
<path d="M5.63498 7.93962L4.91086 7.74429H4.91086L5.63498 7.93962ZM10.0294 3.32187L10.2616 4.03502L10.0294 3.32187ZM5.58024 8.14256L6.30435 8.33789H6.30435L5.58024 8.14256ZM5.37443 12.4901L6.11377 12.3641L5.37443 12.4901ZM5.39835 12.6304L4.65901 12.7565H4.65901L5.39835 12.6304ZM5.44241 12.8555L5.74148 13.5433C6.07066 13.4002 6.25227 13.0439 6.17468 12.6934L5.44241 12.8555ZM5.91421 17.4155L6.06457 16.6808L5.91421 17.4155ZM6.28987 17.4924L6.44022 16.7576H6.44022L6.28987 17.4924ZM17.7101 17.4924L17.8605 18.2272L17.7101 17.4924ZM18.0858 17.4155L17.9354 16.6808L18.0858 17.4155ZM18.5563 12.855L17.8249 12.6889C17.7451 13.0406 17.9268 13.3993 18.2577 13.5429L18.5563 12.855ZM18.6063 12.6035L19.3456 12.7295L19.3456 12.7295L18.6063 12.6035ZM18.6316 12.4548L17.8923 12.3288V12.3288L18.6316 12.4548ZM18.446 8.17266L17.7204 8.3622V8.3622L18.446 8.17266ZM18.3728 7.89241L19.0985 7.70286V7.70286L18.3728 7.89241ZM14.1044 3.32847L14.3405 2.61661L14.3405 2.61661L14.1044 3.32847ZM6.3591 8.13495C6.88057 6.2018 8.36216 4.65345 10.2616 4.03502L9.79717 2.60872C7.41967 3.38281 5.56533 5.31814 4.91086 7.74429L6.3591 8.13495ZM6.30435 8.33789L6.3591 8.13495L4.91086 7.74429L4.85612 7.94722L6.30435 8.33789ZM6.11377 12.3641C5.88534 11.0241 5.95039 9.65007 6.30435 8.33789L4.85612 7.94722C4.44563 9.46896 4.37021 11.0622 4.6351 12.6162L6.11377 12.3641ZM6.13768 12.5044L6.11377 12.3641L4.6351 12.6162L4.65901 12.7565L6.13768 12.5044ZM6.17468 12.6934C6.16087 12.631 6.14852 12.568 6.13768 12.5044L4.65901 12.7565C4.67398 12.8443 4.69104 12.9313 4.71014 13.0176L6.17468 12.6934ZM4.75 15.0614C4.75 14.3809 5.15824 13.7969 5.74148 13.5433L5.14334 12.1677C4.02929 12.6521 3.25 13.7656 3.25 15.0614H4.75ZM6.06457 16.6808C5.30191 16.5247 4.75 15.8495 4.75 15.0614H3.25C3.25 16.5573 4.29863 17.8505 5.76386 18.1503L6.06457 16.6808ZM6.44022 16.7576L6.06457 16.6808L5.76386 18.1503L6.13952 18.2272L6.44022 16.7576ZM17.5598 16.7576C13.8909 17.5084 10.1091 17.5084 6.44022 16.7576L6.13952 18.2272C10.0068 19.0185 13.9932 19.0185 17.8605 18.2272L17.5598 16.7576ZM17.9354 16.6808L17.5598 16.7576L17.8605 18.2272L18.2361 18.1503L17.9354 16.6808ZM19.25 15.0614C19.25 15.8495 18.6981 16.5247 17.9354 16.6808L18.2361 18.1503C19.7014 17.8505 20.75 16.5574 20.75 15.0614H19.25ZM18.2577 13.5429C18.8413 13.7963 19.25 14.3806 19.25 15.0614H20.75C20.75 13.765 19.9699 12.651 18.855 12.167L18.2577 13.5429ZM17.8669 12.4774C17.8548 12.5487 17.8408 12.6192 17.8249 12.6889L19.2877 13.021C19.3095 12.9248 19.3289 12.8276 19.3456 12.7295L17.8669 12.4774ZM17.8923 12.3288L17.8669 12.4774L19.3456 12.7295L19.3709 12.5808L17.8923 12.3288ZM17.7204 8.3622C18.0585 9.65691 18.1172 11.0094 17.8923 12.3288L19.3709 12.5808C19.6316 11.0515 19.5637 9.48391 19.1717 7.98312L17.7204 8.3622ZM17.6472 8.08195L17.7204 8.3622L19.1717 7.98312L19.0985 7.70286L17.6472 8.08195ZM13.8682 4.04032C15.7265 4.65676 17.1496 6.17715 17.6472 8.08195L19.0985 7.70286C18.4731 5.30882 16.6832 3.39375 14.3405 2.61661L13.8682 4.04032ZM10.2616 4.03502C11.4314 3.65414 12.7039 3.65409 13.8682 4.04032L14.3405 2.61661C12.8689 2.12843 11.2681 2.12981 9.79717 2.60872L10.2616 4.03502Z" fill="#0F172A"/>
</svg>
