<svg width="96" height="96" viewBox="0 0 96 96" fill="none" xmlns="http://www.w3.org/2000/svg">
<g clip-path="url(#clip0_34_642)">
<path fill-rule="evenodd" clip-rule="evenodd" d="M25.5014 58.5024H70.4986C72.561 58.5024 74.2484 60.1898 74.2484 62.2522V77.2513C74.2484 79.3136 72.5611 81.001 70.4986 81.001H25.5014C23.439 81.001 21.7516 79.3136 21.7516 77.2513V62.2522C21.7516 60.1896 23.439 58.5024 25.5014 58.5024Z" fill="#5E57FF"/>
<path d="M81.7479 43.5032H77.9981V30.0037C78.3373 13.9498 64.0546 -0.334513 47.9998 0.00596541C31.9467 -0.333951 17.6612 13.9498 18.0022 30.0041C18.0021 30.0039 18.0021 43.5034 18.0021 43.5034H14.2523C11.1509 43.5034 8.62765 46.0266 8.62765 49.1281V90.3755C8.62765 93.4769 11.1509 96.0002 14.2523 96.0002H81.7481C84.8495 96.0002 87.3727 93.4769 87.3727 90.3755V49.1281C87.3725 46.0265 84.8493 43.5032 81.7479 43.5032ZM21.7516 30.0037C23.0757 -4.77723 72.9352 -4.75549 74.2484 30.0041C74.2484 30.0037 74.2484 43.5032 74.2484 43.5032H68.6239V30.0037C68.8588 18.9856 59.0185 9.14433 47.9998 9.38019C36.9823 9.14471 27.1402 18.9854 27.3765 30.0039C27.3763 30.0037 27.3763 43.5032 27.3763 43.5032H21.7516V30.0037ZM64.8741 43.5032H31.1261V30.0037C31.1261 20.6994 38.6957 13.1298 48 13.1298C57.3045 13.1298 64.8741 20.6994 64.8741 30.0037V43.5032ZM83.6228 90.3753C83.6228 91.4091 82.7817 92.2502 81.7479 92.2502H14.2521C13.2183 92.2502 12.3772 91.4091 12.3772 90.3753V49.1279C12.3772 48.0941 13.2183 47.253 14.2521 47.253H81.7479C82.7817 47.253 83.6228 48.0941 83.6228 49.1279V90.3753Z" fill="#0F172A"/>
<path d="M36.1714 67.1266L34.8758 67.5475V66.1854C34.8758 65.1499 34.0362 64.3105 33.0009 64.3105C31.9656 64.3105 31.1261 65.1499 31.1261 66.1854V67.5475L29.8305 67.1266C28.8462 66.8066 27.788 67.3456 27.468 68.3303C27.1479 69.315 27.687 70.3728 28.6718 70.6928L29.9674 71.1137L29.1668 72.2158C28.558 73.0535 28.7438 74.226 29.5815 74.8346C30.4106 75.4393 31.5882 75.2629 32.2005 74.4199L33.0011 73.3179L33.8019 74.4199C34.4142 75.2632 35.5917 75.4393 36.4207 74.8346C37.2584 74.2259 37.4442 73.0535 36.8354 72.2158L36.0347 71.1137L37.33 70.6928C39.6643 69.8446 38.5573 66.4408 36.1714 67.1266Z" fill="white"/>
<path d="M51.1704 67.1266L49.8749 67.5475V66.1854C49.8749 65.1499 49.0353 64.3105 48 64.3105C46.9647 64.3105 46.1251 65.1499 46.1251 66.1854V67.5475L44.8296 67.1266C43.8453 66.8066 42.7869 67.3456 42.467 68.3303C42.147 69.315 42.686 70.3728 43.6709 70.6928L44.9664 71.1137L44.1659 72.2158C43.5571 73.0535 43.7429 74.226 44.5806 74.8346C45.4097 75.4393 46.5873 75.2629 47.1996 74.4199L48.0002 73.3179L48.801 74.4199C49.4133 75.2632 50.5907 75.4393 51.4198 74.8346C52.2575 74.2259 52.4433 73.0535 51.8345 72.2158L51.0338 71.1137L52.3291 70.6928C54.6633 69.8446 53.5566 66.4406 51.1704 67.1266Z" fill="white"/>
<path d="M66.1695 67.1266L64.8739 67.5475V66.1854C64.8739 65.1499 64.0344 64.3105 62.9991 64.3105C61.9637 64.3105 61.1242 65.1499 61.1242 66.1854V67.5475L59.8286 67.1266C58.8443 66.8066 57.7859 67.3456 57.4661 68.3303C57.1461 69.315 57.6851 70.3728 58.67 70.6928L59.9655 71.1137L59.1649 72.2158C58.5562 73.0535 58.742 74.2261 59.5797 74.8346C60.4087 75.4393 61.5863 75.2629 62.1987 74.4199L62.9992 73.318L63.7998 74.4199C64.4122 75.2631 65.5896 75.4393 66.4188 74.8346C67.2565 74.2261 67.4423 73.0535 66.8336 72.2158L66.033 71.1137L67.3285 70.6928C69.6624 69.8446 68.5555 66.4408 66.1695 67.1266Z" fill="white"/>
</g>
<defs>
<clipPath id="clip0_34_642">
<rect width="96" height="96" fill="white"/>
</clipPath>
</defs>
</svg>
