<svg width="34" height="34" viewBox="0 0 34 34" fill="none" xmlns="http://www.w3.org/2000/svg">
<path d="M34 17C34 7.61116 26.3888 0 17 0C7.61116 0 0 7.61116 0 17C0 26.3888 7.61116 34 17 34C26.3888 34 34 26.3888 34 17Z" fill="#A6ADBE"/>
<path d="M17 8.5C12.325 8.5 8.5 12.325 8.5 17C8.5 20.5063 10.625 23.4812 13.6 24.7562C13.6 24.1187 13.6 23.4813 13.7062 22.8438C13.9187 22.1 14.7687 18.1688 14.7687 18.1688C14.7687 18.1688 14.45 17.6375 14.45 16.7875C14.45 15.5125 15.1938 14.5562 16.0438 14.5562C16.7875 14.5562 17.2125 15.0875 17.2125 15.8312C17.2125 16.575 16.6813 17.7438 16.4688 18.8063C16.2563 19.6563 16.8938 20.4 17.85 20.4C19.4438 20.4 20.5063 18.3812 20.5063 15.8312C20.5063 13.9187 19.2313 12.5375 17 12.5375C14.45 12.5375 12.8563 14.45 12.8563 16.575C12.8563 17.3188 13.0688 17.85 13.3875 18.275C13.4938 18.4875 13.6 18.4875 13.4937 18.7C13.4937 18.8063 13.3875 19.2313 13.2813 19.3375C13.175 19.55 13.0688 19.6562 12.8563 19.55C11.6875 19.0187 11.1563 17.7437 11.1563 16.2563C11.1563 13.8125 13.175 10.9438 17.2125 10.9438C20.5062 10.9438 22.6312 13.2812 22.6312 15.8312C22.6312 19.125 20.825 21.675 18.0625 21.675C17.1063 21.675 16.2563 21.1437 15.9375 20.6125C15.9375 20.6125 15.4062 22.525 15.3 22.95C15.0875 23.5875 14.7688 24.225 14.45 24.7562C15.1938 24.9687 16.0437 25.075 16.8937 25.075C21.5687 25.075 25.3937 21.25 25.3937 16.575C25.5 12.325 21.675 8.5 17 8.5Z" fill="white"/>
</svg>
