<svg width="24" height="24" viewBox="0 0 24 24" fill="none" xmlns="http://www.w3.org/2000/svg">
<path d="M3.35288 15.0496L2.6227 15.2209L3.35288 15.0496ZM3.35288 8.95043L2.6227 8.77915L3.35288 8.95043ZM20.6471 8.95044L19.9169 9.12171L20.6471 8.95044ZM20.6471 15.0496L19.9169 14.8783L20.6471 15.0496ZM15.0496 20.6471L14.8783 19.9169L15.0496 20.6471ZM8.95044 20.6471L9.12171 19.9169L8.95044 20.6471ZM8.95043 3.35288L9.12171 4.08306L8.95043 3.35288ZM15.0496 3.35288L14.8783 4.08306L15.0496 3.35288ZM4.08306 14.8783C3.63898 12.9851 3.63898 11.0149 4.08306 9.12171L2.6227 8.77915C2.12577 10.8976 2.12577 13.1024 2.6227 15.2209L4.08306 14.8783ZM19.9169 9.12171C20.361 11.0149 20.361 12.9851 19.9169 14.8783L21.3773 15.2208C21.8742 13.1024 21.8742 10.8976 21.3773 8.77916L19.9169 9.12171ZM14.8783 19.9169C12.9851 20.361 11.0149 20.361 9.12171 19.9169L8.77916 21.3773C10.8976 21.8742 13.1024 21.8742 15.2208 21.3773L14.8783 19.9169ZM9.12171 4.08306C11.0149 3.63898 12.9851 3.63898 14.8783 4.08306L15.2208 2.6227C13.1024 2.12577 10.8976 2.12577 8.77916 2.6227L9.12171 4.08306ZM9.12171 19.9169C6.62161 19.3305 4.6695 17.3784 4.08306 14.8783L2.6227 15.2209C3.33924 18.2756 5.72441 20.6608 8.77916 21.3773L9.12171 19.9169ZM15.2208 21.3773C18.2756 20.6608 20.6608 18.2756 21.3773 15.2208L19.9169 14.8783C19.3305 17.3784 17.3784 19.3305 14.8783 19.9169L15.2208 21.3773ZM14.8783 4.08306C17.3784 4.6695 19.3305 6.62161 19.9169 9.12171L21.3773 8.77916C20.6608 5.72441 18.2756 3.33924 15.2208 2.6227L14.8783 4.08306ZM8.77916 2.6227C5.72441 3.33924 3.33924 5.72441 2.6227 8.77915L4.08306 9.12171C4.6695 6.6216 6.62161 4.6695 9.12171 4.08306L8.77916 2.6227Z" fill="#0F172A"/>
<path d="M9.75 10.306H9H9.75ZM11.5147 9.17665L11.919 8.54494L11.5147 9.17665ZM11.5147 14.8233L11.1104 14.1916L11.5147 14.8233ZM9.75 13.694H10.5H9.75ZM14.1618 13.1293L14.566 13.7611L14.1618 13.1293ZM14.1618 10.8707L13.7575 11.5024L14.1618 10.8707ZM13.7575 12.4976L11.1104 14.1916L11.919 15.4551L14.566 13.7611L13.7575 12.4976ZM10.5 13.694L10.5 10.306H9L9 13.694H10.5ZM11.1104 9.80837L13.7575 11.5024L14.566 10.2389L11.919 8.54494L11.1104 9.80837ZM10.5 10.306C10.5 10.0553 10.6186 9.88767 10.7425 9.80837C10.8589 9.73389 10.9838 9.72734 11.1104 9.80837L11.919 8.54494C11.2613 8.12404 10.5039 8.18023 9.93396 8.54494C9.37161 8.90482 9 9.55287 9 10.306H10.5ZM11.1104 14.1916C10.9838 14.2727 10.8589 14.2661 10.7425 14.1916C10.6186 14.1123 10.5 13.9447 10.5 13.694H9C9 14.4471 9.37161 15.0952 9.93396 15.4551C10.5039 15.8198 11.2613 15.876 11.919 15.4551L11.1104 14.1916ZM14.566 13.7611C15.208 13.3502 15.5 12.6512 15.5 12C15.5 11.3488 15.208 10.6498 14.566 10.2389L13.7575 11.5024C13.8998 11.5935 14 11.7729 14 12C14 12.2271 13.8998 12.4065 13.7575 12.4976L14.566 13.7611Z" fill="#5E57FF"/>
</svg>
