<svg width="54" height="55" viewBox="0 0 54 55" fill="none" xmlns="http://www.w3.org/2000/svg">
<rect width="54" height="55" rx="12" fill="#F2F5FF"/>
<g clip-path="url(#clip0_34_5379)">
<path d="M34.6464 38.2639C34.6464 37.9118 34.5554 37.57 34.3892 37.2686C35.514 36.4779 35.5136 34.7151 34.3892 33.9248C35.1558 32.5804 34.1273 30.8408 32.5777 30.8608H28.7737V25.6981C28.7448 24.9203 27.6287 24.9209 27.6001 25.6981V30.8608H26.4028V25.6981C26.374 24.9203 25.2578 24.9209 25.2292 25.6981V29.404C23.1853 29.5789 21.3438 30.6598 20.1809 32.3752H19.3506C18.5728 32.4041 18.5734 33.5203 19.3506 33.5489H20.5007C20.7051 33.5489 20.8948 33.4425 21.0014 33.268C21.9341 31.7414 23.4882 30.7635 25.2291 30.5828V31.4475C25.2291 31.7716 25.4919 32.0343 25.816 32.0343H32.5777C33.4435 32.0336 33.8019 33.161 33.0924 33.6597C32.8998 33.7965 32.808 34.0354 32.8594 34.266C32.9109 34.4965 33.0956 34.6738 33.3281 34.7156C34.3038 34.9153 34.3031 36.2782 33.3281 36.4775C32.8233 36.561 32.6711 37.2434 33.0924 37.5335C33.741 37.9845 33.5058 39.0061 32.7354 39.1448C32.5029 39.1867 32.3182 39.3639 32.2667 39.5945C32.2152 39.825 32.3071 40.064 32.4997 40.2008C33.1919 40.6807 32.8687 41.8193 32.0396 41.8261H25.816C23.9744 41.8261 22.2422 40.9145 21.1824 39.3877C21.0728 39.2298 20.8927 39.1355 20.7004 39.1355H19.3506C18.5728 39.1644 18.5734 40.2806 19.3506 40.3092H20.4019C21.6922 41.9996 23.6934 42.9997 25.816 42.9997H32.0396C33.5549 43.0214 34.5548 41.2599 33.7964 39.9357C34.3167 39.5565 34.6464 38.9438 34.6464 38.2639Z" fill="#0F172A"/>
<path fill-rule="evenodd" clip-rule="evenodd" d="M27.0014 26.5872C30.7557 26.5872 33.8177 23.5252 33.8177 19.771C33.469 10.7418 20.5324 10.7442 20.1851 19.771C20.1851 23.5253 23.2471 26.5872 27.0014 26.5872Z" fill="#5E57FF"/>
<path d="M26.2605 21.8396C26.1049 21.8396 25.9556 21.7778 25.8455 21.6677L24.3638 20.186C24.1346 19.9567 24.1346 19.5852 24.3638 19.356C24.593 19.1269 24.9645 19.1269 25.1937 19.356L26.2605 20.4229L28.8092 17.8742C29.0384 17.6451 29.4099 17.6451 29.6392 17.8742C29.8683 18.1034 29.8683 18.475 29.6392 18.7042L26.6755 21.6677C26.5654 21.7778 26.4162 21.8396 26.2605 21.8396Z" fill="white"/>
</g>
<defs>
<clipPath id="clip0_34_5379">
<rect width="30" height="30" fill="white" transform="translate(12 13)"/>
</clipPath>
</defs>
</svg>
