<svg width="54" height="55" viewBox="0 0 54 55" fill="none" xmlns="http://www.w3.org/2000/svg">
<rect width="54" height="55" rx="12" fill="#F2F5FF"/>
<path d="M39.2332 23.8065L27.6855 35.3542C26.5558 36.4845 25.023 37.119 23.4246 37.119C23.4246 35.5211 24.0597 33.9884 25.1893 32.8581L36.737 21.311L39.2332 23.8065Z" fill="#5E57FF"/>
<path d="M14.9392 20.646H27.2941V27.7059H14.9392V20.646Z" fill="#5E57FF"/>
<path d="M23.1759 38.8865H19.0576C18.7341 38.8865 18.4717 39.1489 18.4717 39.4724C18.4717 39.796 18.7341 40.0583 19.0576 40.0583H23.1759C23.4995 40.0583 23.7619 39.796 23.7619 39.4724C23.7619 39.1489 23.4996 38.8865 23.1759 38.8865Z" fill="#0F172A"/>
<path d="M17.8811 17.1138C18.1997 17.1138 18.467 16.8456 18.467 16.5272C18.467 16.2083 18.1998 15.9419 17.8811 15.9419C17.5618 15.9419 17.2952 16.2078 17.2952 16.5272C17.2952 16.8462 17.5619 17.1138 17.8811 17.1138Z" fill="#0F172A"/>
<path d="M20.2343 17.1135H24.3525C24.6761 17.1135 24.9385 16.8511 24.9385 16.5276C24.9385 16.204 24.6761 15.9417 24.3525 15.9417H20.2343C19.9107 15.9417 19.6483 16.204 19.6483 16.5276C19.6483 16.8512 19.9107 17.1135 20.2343 17.1135Z" fill="#0F172A"/>
<path d="M39.649 18.5437C39.021 18.5437 38.4306 18.7884 37.9869 19.2325L30.2334 26.9856V16.7924C30.2334 14.7012 28.5322 13 26.4411 13H15.7924C13.7012 13 12 14.7012 12 16.7924V39.2077C12 41.2988 13.7012 43 15.7924 43H26.4411C28.5322 43 30.2334 41.2988 30.2334 39.2076V33.6349C30.2529 33.6154 40.6209 23.2479 41.3115 22.5573C41.7555 22.1134 42 21.523 42 20.8949C42 19.5957 40.9487 18.5437 39.649 18.5437ZM29.0616 39.2076C29.0616 40.6526 27.8861 41.8281 26.4411 41.8281H15.7924C14.3474 41.8281 13.1719 40.6526 13.1719 39.2076V16.7924C13.1719 15.3474 14.3474 14.1719 15.7924 14.1719H26.4411C27.886 14.1719 29.0616 15.3474 29.0616 16.7924V28.1574L24.775 32.4438C23.6722 33.5473 23.0073 34.9715 22.867 36.5056C22.0393 36.359 21.4085 35.6349 21.4085 34.7658V33.5891C21.4085 32.6172 20.6179 31.8266 19.646 31.8266C18.6741 31.8266 17.8833 32.6172 17.8833 33.5891V35.9424C17.8833 36.2682 17.6183 36.5332 17.2927 36.5332C16.9669 36.5332 16.7019 36.2682 16.7019 35.9424V31.2358C16.7019 30.2639 15.9112 29.4732 14.9393 29.4732C14.6157 29.4732 14.3534 29.7355 14.3534 30.0592C14.3534 30.3827 14.6157 30.6451 14.9393 30.6451C15.2651 30.6451 15.53 30.9101 15.53 31.2358V35.9424C15.53 36.9143 16.3208 37.7051 17.2927 37.7051C18.2646 37.7051 19.0552 36.9143 19.0552 35.9424V33.5891C19.0552 33.2634 19.3202 32.9985 19.646 32.9985C19.9717 32.9985 20.2366 33.2634 20.2366 33.5891V34.7658C20.2366 36.3865 21.5552 37.7051 23.1759 37.7051C23.1861 37.7051 23.419 37.7048 23.4291 37.7048C25.1943 37.7037 26.853 37.0161 28.0999 35.7684L29.0616 34.8068V39.2076ZM40.483 21.7286C39.1247 23.0866 28.4827 33.7284 27.2711 34.9399C26.3919 35.8196 25.2641 36.3609 24.0454 36.4983C24.1829 35.2804 24.7242 34.1524 25.6038 33.2724L38.8157 20.061C39.276 19.6001 40.0217 19.6 40.4829 20.0612C40.7055 20.2838 40.8281 20.5799 40.8281 20.895C40.8281 21.21 40.7055 21.5061 40.483 21.7286Z" fill="#0F172A"/>
<path d="M17.2926 23.585H24.9409C25.2644 23.585 25.5268 23.3226 25.5268 22.999C25.5268 22.6755 25.2644 22.4131 24.9409 22.4131H17.2926C16.969 22.4131 16.7067 22.6755 16.7067 22.999C16.7067 23.3226 16.969 23.585 17.2926 23.585Z" fill="white"/>
<path d="M17.2926 25.9385H24.9409C25.2644 25.9385 25.5268 25.6761 25.5268 25.3525C25.5268 25.0289 25.2644 24.7666 24.9409 24.7666H17.2926C16.969 24.7666 16.7067 25.0289 16.7067 25.3525C16.7067 25.6762 16.969 25.9385 17.2926 25.9385Z" fill="white"/>
</svg>
