<svg width="54" height="55" viewBox="0 0 54 55" fill="none" xmlns="http://www.w3.org/2000/svg">
<rect width="54" height="55" rx="12" fill="#F2F5FF"/>
<path d="M33.4222 35.9108C32.4075 35.9108 31.5849 35.0882 31.5849 34.0734C31.5849 33.0587 32.4075 32.2361 33.4222 32.2361H33.843V28.4795H19.3853V39.6673H33.843V35.9107H33.4222V35.9108Z" fill="#5E57FF"/>
<path d="M26.2385 23.5498C26.4579 23.8584 26.9561 23.8583 27.1754 23.5498L31.5036 17.7896C31.7948 17.4146 31.5097 16.844 31.0351 16.8517H29.211V13.5859C29.211 13.2623 28.9487 13 28.6251 13H24.7888C24.4652 13 24.2029 13.2623 24.2029 13.5859V16.8517H22.3788C21.904 16.844 21.6191 17.4147 21.9103 17.7896L26.2385 23.5498ZM24.7889 18.0235C25.1124 18.0235 25.3748 17.7612 25.3748 17.4376V14.1719H28.0392V17.4376C28.0392 17.7612 28.3016 18.0235 28.6252 18.0235H29.862L26.707 22.2224L23.552 18.0235H24.7889Z" fill="#0F172A"/>
<path d="M37.3612 31.6502H37.1756V25.7329C37.1756 25.4093 36.9132 25.147 36.5896 25.147H18.5637C17.1791 25.147 16.0527 26.2734 16.0527 27.6579V40.4889C16.0527 41.8734 17.1791 42.9998 18.5637 42.9998H36.5896C36.9132 42.9998 37.1756 42.7375 37.1756 42.4139V36.4967H37.3612C37.6848 36.4967 37.9472 36.2344 37.9472 35.9108V32.2362C37.9472 31.9125 37.6848 31.6502 37.3612 31.6502ZM36.7753 32.8221V35.3248H33.4222C31.7617 35.2559 31.763 32.8903 33.4222 32.8221H36.7753ZM17.2247 40.4889V27.658C17.2247 26.9196 17.8254 26.3189 18.5638 26.3189H18.7994V41.828H18.5638C17.8254 41.828 17.2247 41.2273 17.2247 40.4889ZM36.0037 41.828H19.9713V26.3188H36.0037V31.6502H33.4222C30.2067 31.7837 30.2092 36.3644 33.4222 36.4966H36.0037V41.828Z" fill="#0F172A"/>
<path d="M33.0842 34.0735C33.0842 34.3971 33.3466 34.6594 33.6702 34.6594H34.1891C34.9665 34.6284 34.9659 33.5183 34.1891 33.4875H33.6702C33.3466 33.4875 33.0842 33.7499 33.0842 34.0735Z" fill="#0F172A"/>
</svg>
