<svg width="16" height="16" viewBox="0 0 16 16" fill="none" xmlns="http://www.w3.org/2000/svg">
<g clip-path="url(#clip0_86_4639)">
<path d="M14.0641 4.58499C14.3991 3.88541 14.3516 3.03789 13.7766 2.46285L13.5372 2.22346C12.9621 1.64842 12.0918 1.55693 11.415 1.93594C10.9387 2.20269 9.93072 1.64803 9.8561 1.28877C9.69939 0.534272 8.97126 0 8.16336 0L7.752 0.020896C6.80602 0.06896 6.06368 0.849984 6.06368 1.79718C6.096 2.208 5.392 2.512 4.98307 2.24474C4.28125 1.54291 3.14336 1.54291 2.44154 2.24474L2.2447 2.44157C1.64288 3.04342 1.57296 3.95642 1.98758 4.6592C2.272 5.14131 1.99466 5.99466 1.52739 6.10954C0.677152 6.31859 0 6.944 0 7.86554V8.16304C0 8.97917 0.594496 9.5881 1.33402 9.85043C2.10131 10.1226 2.0408 11.2482 1.96214 11.383C1.56083 12.0711 1.65501 12.9687 2.24474 13.5584L2.44157 13.7553C3.02832 14.342 3.90464 14.4104 4.60662 14.0438C5.10934 13.7813 6.04803 14.272 6.12589 14.6732C6.27677 15.4505 7.03107 16 7.8609 16H8.11696C8.93046 16 9.61926 15.4661 9.85206 14.7296C10.0043 14.2479 10.7414 13.76 11.4746 14.0684C12.1721 14.3619 13.0312 14.2825 13.5763 13.7374L13.7553 13.5584C14.4571 12.8566 14.4571 11.7187 13.7553 11.0169C13.44 10.7307 13.8454 9.94134 14.2028 9.93632C15.1954 9.93632 16 9.13168 16 8.13914V7.83146C16 7.00499 15.4514 6.26784 14.6792 6.09814C14.16 5.984 13.896 4.936 14.0641 4.58499V4.58499Z" fill="#04B155"/>
<path d="M6.60021 10.4427L4.51473 8.35724C4.26478 8.10728 4.26478 7.70207 4.51473 7.45215C4.76469 7.20219 5.1699 7.20219 5.41982 7.45215L7.05275 9.08508L10.5802 5.55758C10.8302 5.30763 11.2354 5.30763 11.4853 5.55758C11.7352 5.80753 11.7353 6.21275 11.4853 6.46267L7.50533 10.4427C7.2427 10.6668 6.77339 10.6348 6.60021 10.4427Z" fill="white"/>
</g>
<defs>
<clipPath id="clip0_86_4639">
<rect width="16" height="16" fill="white"/>
</clipPath>
</defs>
</svg>
