<svg width="96" height="96" viewBox="0 0 96 96" fill="none" xmlns="http://www.w3.org/2000/svg">
<path d="M55.6068 78.6335L45.2737 81.6128L14.387 50.726L17.3664 40.3928L55.6068 78.6335Z" fill="#5E57FF"/>
<path d="M32.8762 85.1886L22.5412 88.1663L7.83372 73.4586L10.8114 63.1238L32.8762 85.1886Z" fill="#5E57FF"/>
<path d="M89.9282 35.146C88.3065 35.146 86.7819 34.5145 85.635 33.3677C83.2678 31.0002 83.2678 27.1484 85.635 24.781C86.7818 23.6344 88.3069 23.0029 89.9282 23.0029H89.928C91.5499 23.0029 93.0746 23.6344 94.2214 24.781C96.5884 27.1486 96.5886 31.0004 94.2214 33.3679C93.0748 34.5143 91.5501 35.1458 89.9282 35.146Z" fill="#5E57FF"/>
<path d="M66.0512 28.2246C64.5002 28.2246 63.0421 27.6205 61.9456 26.524C59.6819 24.2601 59.6819 20.5763 61.9456 18.3124C63.0422 17.2158 64.5004 16.6118 66.0512 16.6118C67.6022 16.6118 69.0604 17.2159 70.1569 18.3124C72.4208 20.5763 72.4206 24.2601 70.1569 26.524C69.0602 27.6205 67.6022 28.2244 66.0512 28.2246Z" fill="#5E57FF"/>
<path d="M94.8761 54.0132C91.1921 50.329 86.2937 48.2999 81.0836 48.2999C75.8734 48.3001 70.9752 50.329 67.291 54.0132L58.453 62.8512L33.1486 37.5468L41.9866 28.7088C45.6708 25.0248 47.6997 20.1262 47.6997 14.9161C47.6997 9.70588 45.6708 4.80764 41.9866 1.12346C41.2544 0.391463 40.0672 0.391463 39.335 1.12346C38.6028 1.85565 38.6028 3.0429 39.3352 3.77508C42.311 6.75089 43.9499 10.7075 43.9499 14.9159C43.9499 19.1244 42.311 23.081 39.3352 26.0568L30.4972 34.8948L22.268 26.6656C21.7989 26.1965 21.1164 26.0101 20.474 26.1759C19.8315 26.3416 19.3245 26.8345 19.1405 27.472C0.98305 90.4502 21.1968 20.3264 0.0734891 93.6052C-0.115698 94.2611 0.0665516 94.968 0.549176 95.4506C1.03461 95.9359 1.7428 96.1143 2.39455 95.9263L68.5275 76.8595C69.897 76.4646 70.3426 74.7409 69.334 73.732L61.1046 65.5026L69.9426 56.6646C72.9184 53.6886 76.875 52.0497 81.0835 52.0497C85.2919 52.0497 89.2485 53.6886 92.2243 56.6646L92.5841 57.0244C93.3163 57.7564 94.5036 57.7564 95.2359 57.0244C95.9681 56.2922 95.9681 55.105 95.2359 54.3726L94.8761 54.0132ZM4.61698 91.3826C21.858 31.5689 8.62816 77.4698 21.863 31.5646C23.6581 33.3597 62.9217 72.6235 64.435 74.1368C24.3928 85.6809 4.72761 91.3509 4.61698 91.3826Z" fill="#0F172A"/>
<path d="M64.7517 10.2129C65.0907 10.4702 65.4888 10.5945 65.8838 10.5945C66.4503 10.5945 67.0099 10.3387 67.3789 9.85273C68.7799 8.00642 70.3013 7.73305 72.4066 7.35486C74.8126 6.92248 77.8066 6.38455 80.5169 3.05961C81.1713 2.25692 81.0509 1.07586 80.2482 0.42167C79.4455 -0.23233 78.2644 -0.112517 77.6102 0.690358C75.7771 2.93942 73.9077 3.27523 71.7434 3.66411C69.3685 4.09067 66.6767 4.57442 64.3915 7.58605C63.7656 8.41086 63.9269 9.58705 64.7517 10.2129Z" fill="#0F172A"/>
<path d="M81.0297 16.9378C81.3649 17.1855 81.7553 17.305 82.1423 17.305C82.717 17.305 83.2842 17.0415 83.6518 16.5437C85.6197 13.8801 87.2052 13.6018 89.2125 13.2495C91.0727 12.9231 93.3878 12.517 95.5491 9.99303C96.2226 9.20666 96.1311 8.02278 95.3445 7.34928C94.558 6.67578 93.3745 6.76728 92.7008 7.55403C91.4147 9.05591 90.2192 9.26572 88.5645 9.55616C86.3057 9.95234 83.4945 10.4458 80.6357 14.3158C80.0205 15.1487 80.1968 16.3227 81.0297 16.9378Z" fill="#0F172A"/>
<path d="M43.5083 39.339C43.0351 40.2602 43.3981 41.3905 44.3193 41.8637C45.2382 42.3362 46.37 41.9755 46.8438 41.0528C47.213 40.3345 47.4798 40.264 48.8127 40.1903C50.3767 40.1036 52.9942 39.9591 54.4387 36.4765C54.8354 35.52 54.3817 34.423 53.4252 34.0262C52.469 33.6298 51.3717 34.0834 50.975 35.0398C50.4337 36.3448 49.973 36.3703 48.6059 36.4459C47.1258 36.5278 44.8891 36.6514 43.5083 39.339Z" fill="#0F172A"/>
<path d="M66.2078 42.2534C64.9186 44.1871 63.8806 44.251 62.161 44.3568C60.0087 44.4892 57.061 44.6705 54.2281 48.9072C53.6525 49.768 53.8838 50.9326 54.7445 51.508C55.607 52.0852 56.7711 51.8504 57.3455 50.9917C59.1456 48.2995 60.5069 48.2157 62.3911 48.0998C64.4474 47.9733 67.0064 47.8158 69.3278 44.3335C69.9023 43.472 69.6695 42.3078 68.8079 41.7335C67.9462 41.159 66.7822 41.3915 66.2078 42.2534Z" fill="#0F172A"/>
<path d="M77.9496 37.2935C78.9851 37.2935 79.8246 36.454 79.8246 35.4185C79.8246 34.3829 78.9851 33.5435 77.9496 33.5435C76.9141 33.5435 76.0746 34.3829 76.0746 35.4185C76.0746 36.454 76.9141 37.2935 77.9496 37.2935Z" fill="#0F172A"/>
<path d="M87.5758 40.0856C86.8541 40.8071 86.8545 42.0152 87.5758 42.7369C88.2973 43.4584 89.5056 43.4587 90.2271 42.7369C90.9486 42.0152 90.949 40.8073 90.2271 40.0856C89.5054 39.3635 88.2975 39.3639 87.5758 40.0856C87.2271 40.4342 87.9246 39.7367 87.5758 40.0856Z" fill="#0F172A"/>
<path d="M79.594 23.1149C78.8723 22.3934 77.6644 22.3934 76.9427 23.1149C76.2201 23.8377 76.2231 25.0425 76.9427 25.7663C77.6646 26.4878 78.8723 26.4878 79.594 25.7663C80.3157 25.0444 80.3157 23.8365 79.594 23.1149C79.9427 23.4636 79.2452 22.7661 79.594 23.1149Z" fill="#0F172A"/>
<path d="M54.589 28.2241C55.6245 28.2241 56.464 27.3847 56.464 26.3491C56.464 25.3136 55.6245 24.4741 54.589 24.4741C53.5535 24.4741 52.714 25.3136 52.714 26.3491C52.714 27.3847 53.5535 28.2241 54.589 28.2241Z" fill="#0F172A"/>
<path d="M63.4465 37.0798C64.4654 37.0798 65.3215 36.2261 65.3215 35.2067C65.3215 34.1865 64.4676 33.3298 63.4465 33.3298C62.4248 33.3298 61.5696 34.185 61.5696 35.2067C61.5696 36.2275 62.4269 37.0798 63.4465 37.0798Z" fill="#0F172A"/>
<path d="M55.7028 15.8154C56.7383 15.8154 57.5778 14.976 57.5778 13.9404C57.5778 12.9049 56.7383 12.0654 55.7028 12.0654C54.6672 12.0654 53.8278 12.9049 53.8278 13.9404C53.8278 14.976 54.6672 15.8154 55.7028 15.8154Z" fill="#0F172A"/>
<path d="M57.2403 4.8562C58.2758 4.8562 59.1153 4.01674 59.1153 2.9812C59.1153 1.94567 58.2758 1.1062 57.2403 1.1062C56.2047 1.1062 55.3653 1.94567 55.3653 2.9812C55.3653 4.01674 56.2047 4.8562 57.2403 4.8562Z" fill="#0F172A"/>
</svg>
