<svg width="34" height="34" viewBox="0 0 34 34" fill="none" xmlns="http://www.w3.org/2000/svg">
<rect width="34" height="34" rx="17" fill="#A6ADBE"/>
<path d="M26.0116 12.6648C25.4166 12.9198 24.7366 13.0898 24.0566 13.1748C24.7366 12.7498 25.3316 12.0698 25.5865 11.3048C24.9066 11.7298 24.2266 11.9848 23.3766 12.1548C22.7816 11.4748 21.8466 11.0498 20.9116 11.0498C19.0416 11.0498 17.5116 12.5798 17.5116 14.4498C17.5116 14.7048 17.5116 14.9598 17.5966 15.2148C14.7916 15.0448 12.2416 13.6848 10.5416 11.6448C10.2866 12.1548 10.1166 12.7498 10.1166 13.3448C10.1166 14.5348 10.7116 15.5548 11.6466 16.1498C11.0516 16.1498 10.5416 15.9798 10.1166 15.7248C10.1166 17.3398 11.3066 18.7848 12.8366 19.0398C12.5816 19.1248 12.2416 19.1248 11.9016 19.1248C11.6466 19.1248 11.4766 19.1248 11.2216 19.0398C11.6466 20.3998 12.9216 21.4198 14.4516 21.4198C13.2616 22.3548 11.8166 22.8648 10.2016 22.8648C9.94656 22.8648 9.69156 22.8648 9.35156 22.7798C10.8816 23.7148 12.6666 24.3098 14.6216 24.3098C20.9116 24.3098 24.3116 19.1248 24.3116 14.6198V14.1948C24.9916 13.9398 25.5865 13.3448 26.0116 12.6648Z" fill="white"/>
</svg>
